# xmcd CD database file
#
# Track frame offsets:
#	150
#	12131
#	26628
#	36313
#	46507
#	56757
#	67380
#	79595
#	89517
#	102066
#	116779
#	128426
#
# Disc length: 1830 seconds
#
# Revision: 2
# Processed by: cddbd v1.5.2PL0 Copyright (c) Steve Scherf et al.
# Submitted via: CDex 1.70beta2
#
DISCID=9707240c
DTITLE=CMH 60's - 2 - Country Music Hits of the 60s - 2
DYEAR=1900
DGENRE=Country
TTITLE0=01 - Al Hirt and Ace Cannon - I Fall To Pieces
TTITLE1=02 - Don Gibson - Sweet Dreams
TTITLE2=03 - Hank Locklin - Please Help Me, I'm Falling
TTITLE3=04 - Connie Smith - Once A Day
TTITLE4=05 - David Houston - Baby, Baby (I Know You're A Lady)
TTITLE5=06 - Kitty Wells - Heartbreak U.S.A
TTITLE6=07 - Tommy Cash - Six White Horses
TTITLE7=08 - Ferlin Husky - Looking At The World Through A Windshield
TTITLE8=09 - Roy Drusky - Three Hearts In A Tangle
TTITLE9=10 - Jeannie C. Riley - Harper Valley P.T.A
TTITLE10=11 - Skeeter Davis - (I Can't Help You) I'm Falling Too
TTITLE11=12 - Frankie Laine - Rawhide
EXTD=
EXTT0=
EXTT1=
EXTT2=
EXTT3=
EXTT4=
EXTT5=
EXTT6=
EXTT7=
EXTT8=
EXTT9=
EXTT10=
EXTT11=
PLAYORDER=
